<mxfile host="app.diagrams.net" modified="2023-11-01T12:00:00.000Z" agent="Mozilla/5.0" etag="abc123" version="21.6.6">
  <diagram name="Страница медиа-контента - Мобильная версия" id="media-page-mobile">
    <mxGraphModel dx="375" dy="667" grid="1" gridSize="10" guides="1" tooltips="1" connect="1" arrows="1" fold="1" page="1" pageScale="1" pageWidth="375" pageHeight="667" math="0" shadow="0">
      <root>
        <mxCell id="0" />
        <mxCell id="1" parent="0" />
        <!-- Верхняя панель навигации -->
        <mxCell id="header" value="" style="rounded=0;whiteSpace=wrap;html=1;fillColor=#f5f5f5;strokeColor=#666666;fontColor=#333333;" vertex="1" parent="1">
          <mxGeometry x="0" y="0" width="375" height="50" as="geometry" />
        </mxCell>
        <mxCell id="back_button" value="←" style="text;html=1;strokeColor=none;fillColor=none;align=center;verticalAlign=middle;whiteSpace=wrap;rounded=0;fontSize=20;fontStyle=1" vertex="1" parent="1">
          <mxGeometry x="10" y="10" width="30" height="30" as="geometry" />
        </mxCell>
        <mxCell id="share_button" value="↗️" style="text;html=1;strokeColor=none;fillColor=none;align=center;verticalAlign=middle;whiteSpace=wrap;rounded=0;fontSize=16;" vertex="1" parent="1">
          <mxGeometry x="320" y="10" width="30" height="30" as="geometry" />
        </mxCell>
        <!-- Обложка и основная информация -->
        <mxCell id="cover_section" value="" style="rounded=0;whiteSpace=wrap;html=1;fillColor=#f9f9f9;strokeColor=#cccccc;" vertex="1" parent="1">
          <mxGeometry x="0" y="50" width="375" height="200" as="geometry" />
        </mxCell>
        <mxCell id="cover_image" value="" style="rounded=1;whiteSpace=wrap;html=1;fillColor=#f5f5f5;strokeColor=#666666;" vertex="1" parent="1">
          <mxGeometry x="20" y="60" width="120" height="180" as="geometry" />
        </mxCell>
        <mxCell id="media_title" value="Название медиа" style="text;html=1;strokeColor=none;fillColor=none;align=left;verticalAlign=top;whiteSpace=wrap;rounded=0;fontSize=18;fontStyle=1" vertex="1" parent="1">
          <mxGeometry x="150" y="60" width="215" height="30" as="geometry" />
        </mxCell>
        <mxCell id="media_type" value="🎮 Игра" style="text;html=1;strokeColor=none;fillColor=none;align=left;verticalAlign=top;whiteSpace=wrap;rounded=0;fontSize=14;" vertex="1" parent="1">
          <mxGeometry x="150" y="90" width="215" height="20" as="geometry" />
        </mxCell>
        <mxCell id="media_info" value="Жанр: RPG&#10;Год: 2023&#10;Разработчик: Studio Name" style="text;html=1;strokeColor=none;fillColor=none;align=left;verticalAlign=top;whiteSpace=wrap;rounded=0;fontSize=12;" vertex="1" parent="1">
          <mxGeometry x="150" y="120" width="215" height="50" as="geometry" />
        </mxCell>
        <mxCell id="rating" value="★★★★☆ 4.5" style="text;html=1;strokeColor=none;fillColor=none;align=left;verticalAlign=top;whiteSpace=wrap;rounded=0;fontSize=14;fontStyle=1" vertex="1" parent="1">
          <mxGeometry x="150" y="170" width="215" height="20" as="geometry" />
        </mxCell>
        <mxCell id="rating_count" value="(1,234 оценки)" style="text;html=1;strokeColor=none;fillColor=none;align=left;verticalAlign=top;whiteSpace=wrap;rounded=0;fontSize=12;fontColor=#666666;" vertex="1" parent="1">
          <mxGeometry x="150" y="190" width="215" height="20" as="geometry" />
        </mxCell>
        <!-- Действия -->
        <mxCell id="actions_section" value="" style="rounded=0;whiteSpace=wrap;html=1;fillColor=#ffffff;strokeColor=#f0f0f0;" vertex="1" parent="1">
          <mxGeometry x="0" y="250" width="375" height="60" as="geometry" />
        </mxCell>
        <mxCell id="add_library" value="+ Добавить" style="rounded=1;whiteSpace=wrap;html=1;fillColor=#dae8fc;strokeColor=#6c8ebf;fontSize=12;" vertex="1" parent="1">
          <mxGeometry x="20" y="260" width="100" height="40" as="geometry" />
        </mxCell>
        <mxCell id="add_list" value="В список" style="rounded=1;whiteSpace=wrap;html=1;fillColor=#ffffff;strokeColor=#999999;fontSize=12;" vertex="1" parent="1">
          <mxGeometry x="130" y="260" width="80" height="40" as="geometry" />
        </mxCell>
        <mxCell id="write_review" value="Написать отзыв" style="rounded=1;whiteSpace=wrap;html=1;fillColor=#ffffff;strokeColor=#999999;fontSize=12;" vertex="1" parent="1">
          <mxGeometry x="220" y="260" width="100" height="40" as="geometry" />
        </mxCell>
        <!-- Описание -->
        <mxCell id="description_section" value="" style="rounded=0;whiteSpace=wrap;html=1;fillColor=#ffffff;strokeColor=#f0f0f0;" vertex="1" parent="1">
          <mxGeometry x="0" y="310" width="375" height="100" as="geometry" />
        </mxCell>
        <mxCell id="description_title" value="Описание" style="text;html=1;strokeColor=none;fillColor=none;align=left;verticalAlign=middle;whiteSpace=wrap;rounded=0;fontSize=14;fontStyle=1" vertex="1" parent="1">
          <mxGeometry x="20" y="320" width="335" height="20" as="geometry" />
        </mxCell>
        <mxCell id="description_text" value="Краткое описание медиа-контента..." style="text;html=1;strokeColor=none;fillColor=none;align=left;verticalAlign=top;whiteSpace=wrap;rounded=0;fontSize=12;" vertex="1" parent="1">
          <mxGeometry x="20" y="340" width="335" height="60" as="geometry" />
        </mxCell>
        <!-- Отзывы -->
        <mxCell id="reviews_section" value="" style="rounded=0;whiteSpace=wrap;html=1;fillColor=#ffffff;strokeColor=#f0f0f0;" vertex="1" parent="1">
          <mxGeometry x="0" y="410" width="375" height="207" as="geometry" />
        </mxCell>
        <mxCell id="reviews_title" value="Отзывы" style="text;html=1;strokeColor=none;fillColor=none;align=left;verticalAlign=middle;whiteSpace=wrap;rounded=0;fontSize=14;fontStyle=1" vertex="1" parent="1">
          <mxGeometry x="20" y="420" width="335" height="20" as="geometry" />
        </mxCell>
        <!-- Отзыв 1 -->
        <mxCell id="review_1" value="" style="rounded=1;whiteSpace=wrap;html=1;fillColor=#ffffff;strokeColor=#dddddd;" vertex="1" parent="1">
          <mxGeometry x="20" y="450" width="335" height="80" as="geometry" />
        </mxCell>
        <mxCell id="review_1_avatar" value="" style="ellipse;whiteSpace=wrap;html=1;aspect=fixed;fillColor=#f5f5f5;strokeColor=#666666;" vertex="1" parent="1">
          <mxGeometry x="30" y="460" width="40" height="40" as="geometry" />
        </mxCell>
        <mxCell id="review_1_name" value="Имя пользователя" style="text;html=1;strokeColor=none;fillColor=none;align=left;verticalAlign=top;whiteSpace=wrap;rounded=0;fontSize=12;fontStyle=1" vertex="1" parent="1">
          <mxGeometry x="80" y="460" width="200" height="20" as="geometry" />
        </mxCell>
        <mxCell id="review_1_rating" value="★★★★★" style="text;html=1;strokeColor=none;fillColor=none;align=right;verticalAlign=top;whiteSpace=wrap;rounded=0;fontSize=12;" vertex="1" parent="1">
          <mxGeometry x="280" y="460" width="65" height="20" as="geometry" />
        </mxCell>
        <mxCell id="review_1_text" value="Текст отзыва..." style="text;html=1;strokeColor=none;fillColor=none;align=left;verticalAlign=top;whiteSpace=wrap;rounded=0;fontSize=12;" vertex="1" parent="1">
          <mxGeometry x="80" y="480" width="265" height="40" as="geometry" />
        </mxCell>
        <!-- Отзыв 2 -->
        <mxCell id="review_2" value="" style="rounded=1;whiteSpace=wrap;html=1;fillColor=#ffffff;strokeColor=#dddddd;" vertex="1" parent="1">
          <mxGeometry x="20" y="540" width="335" height="80" as="geometry" />
        </mxCell>
        <mxCell id="review_2_avatar" value="" style="ellipse;whiteSpace=wrap;html=1;aspect=fixed;fillColor=#f5f5f5;strokeColor=#666666;" vertex="1" parent="1">
          <mxGeometry x="30" y="550" width="40" height="40" as="geometry" />
        </mxCell>
        <mxCell id="review_2_name" value="Имя пользователя" style="text;html=1;strokeColor=none;fillColor=none;align=left;verticalAlign=top;whiteSpace=wrap;rounded=0;fontSize=12;fontStyle=1" vertex="1" parent="1">
          <mxGeometry x="80" y="550" width="200" height="20" as="geometry" />
        </mxCell>
        <mxCell id="review_2_rating" value="★★★★☆" style="text;html=1;strokeColor=none;fillColor=none;align=right;verticalAlign=top;whiteSpace=wrap;rounded=0;fontSize=12;" vertex="1" parent="1">
          <mxGeometry x="280" y="550" width="65" height="20" as="geometry" />
        </mxCell>
        <mxCell id="review_2_text" value="Текст отзыва..." style="text;html=1;strokeColor=none;fillColor=none;align=left;verticalAlign=top;whiteSpace=wrap;rounded=0;fontSize=12;" vertex="1" parent="1">
          <mxGeometry x="80" y="570" width="265" height="40" as="geometry" />
        </mxCell>
        <!-- Нижняя навигационная панель -->
        <mxCell id="bottom_nav" value="" style="rounded=0;whiteSpace=wrap;html=1;fillColor=#f5f5f5;strokeColor=#666666;fontColor=#333333;" vertex="1" parent="1">
          <mxGeometry x="0" y="617" width="375" height="50" as="geometry" />
        </mxCell>
        <mxCell id="nav_home" value="🏠" style="text;html=1;strokeColor=none;fillColor=none;align=center;verticalAlign=middle;whiteSpace=wrap;rounded=0;fontSize=16;" vertex="1" parent="1">
          <mxGeometry x="20" y="627" width="30" height="30" as="geometry" />
        </mxCell>
        <mxCell id="nav_search" value="🔍" style="text;html=1;strokeColor=none;fillColor=none;align=center;verticalAlign=middle;whiteSpace=wrap;rounded=0;fontSize=16;" vertex="1" parent="1">
          <mxGeometry x="100" y="627" width="30" height="30" as="geometry" />
        </mxCell>
        <mxCell id="nav_library" value="📚" style="text;html=1;strokeColor=none;fillColor=none;align=center;verticalAlign=middle;whiteSpace=wrap;rounded=0;fontSize=16;" vertex="1" parent="1">
          <mxGeometry x="180" y="627" width="30" height="30" as="geometry" />
        </mxCell>
        <mxCell id="nav_achievements" value="🏆" style="text;html=1;strokeColor=none;fillColor=none;align=center;verticalAlign=middle;whiteSpace=wrap;rounded=0;fontSize=16;" vertex="1" parent="1">
          <mxGeometry x="260" y="627" width="30" height="30" as="geometry" />
        </mxCell>
        <mxCell id="nav_profile" value="👤" style="text;html=1;strokeColor=none;fillColor=none;align=center;verticalAlign=middle;whiteSpace=wrap;rounded=0;fontSize=16;" vertex="1" parent="1">
          <mxGeometry x="330" y="627" width="30" height="30" as="geometry" />
        </mxCell>
      </root>
    </mxGraphModel>
  </diagram>
</mxfile>